<?xml version="1.0" encoding="utf-8"?>
<!-- Generator: Adobe Illustrator 16.0.0, SVG Export Plug-In . SVG Version: 6.00 Build 0)  -->
<!DOCTYPE svg PUBLIC "-//W3C//DTD SVG 1.1//EN" "http://www.w3.org/Graphics/SVG/1.1/DTD/svg11.dtd">
<svg version="1.1" id="Layer_1" xmlns="http://www.w3.org/2000/svg" xmlns:xlink="http://www.w3.org/1999/xlink" x="0px" y="0px"
	 width="20px" height="12px" viewBox="10.906 6.312 20 12" enable-background="new 10.906 6.312 20 12" xml:space="preserve">
<rect x="10.906" y="6.312" display="none" fill="#222222" width="20" height="12"/>
<g>
	<g display="none">
		<g display="inline">
			<path fill="#FFFFFF" d="M13.501,16.894h-1.234l3.042-9.872h1.303l3.059,9.872h-1.354l-0.674-2.168h-3.472L13.501,16.894z
				 M14.476,13.741h2.88l-1.19-3.749L15.89,8.99l-0.25,1.002L14.476,13.741z"/>
		</g>
		<g display="inline">
			<path fill="#FFFFFF" d="M20.079,16.894v-1.619l4.681-6.727h-4.535V7.022h6.025v1.526l-4.673,6.727h4.769v1.619H20.079z"/>
		</g>
	</g>
	<line fill="none" stroke="#FFFFFF" stroke-miterlimit="10" x1="28.63" y1="7.022" x2="28.63" y2="14.147"/>
	<polygon fill="#FFFFFF" points="30.906,13.208 28.629,16.13 26.353,13.208 	"/>
</g>
<g>
	<path fill="#FFFFFF" d="M17.896,15.569h-4.262l-1.109,2.743h-1.619l4.927-12l4.752,12h-1.645L17.896,15.569z M17.284,13.968
		l-1.477-3.838l-1.548,3.838H17.284z"/>
	<path fill="#FFFFFF" d="M22.684,16.71h4.776v1.603h-7.248l4.889-9.689h-4.09V7.022h6.559L22.684,16.71z"/>
</g>
</svg>
